<svg xmlns="http://www.w3.org/2000/svg" xmlns:xlink="http://www.w3.org/1999/xlink" version="1.1" x="0px" y="0px" viewBox="0 0 64 80" style="enable-background:new 0 0 64 64;" xml:space="preserve"><g><path d="M63.65,28.84L32.32,2.4c-0.37-0.32-0.92-0.31-1.3,0.01L0.35,28.76c-0.42,0.36-0.47,0.99-0.11,1.41   c0.36,0.42,0.99,0.47,1.41,0.11l7.1-6.1v36.66c0,0.55,0.45,1,1,1h43.76c0.3,0,0.59-0.14,0.78-0.38l0.24-0.3   c0.14-0.18,0.22-0.4,0.22-0.62V23.95l7.61,6.42c0.19,0.16,0.42,0.24,0.64,0.24c0.28,0,0.57-0.12,0.76-0.35   C64.12,29.83,64.07,29.2,63.65,28.84z M52.75,59.84h-42v-37c0-0.12-0.02-0.23-0.06-0.33L31.68,4.47l21.07,17.79V59.84z"/><path d="M26.67,33.65c0.14,0,0.28-0.01,0.43-0.03c0.94-0.12,1.81-0.63,2.43-1.43c0.77-0.99,1.11-2.35,0.93-3.71l0,0   c-0.33-2.56-2.37-4.42-4.55-4.14c-0.94,0.12-1.81,0.62-2.43,1.43c-0.77,0.99-1.11,2.35-0.93,3.71   C22.85,31.87,24.66,33.65,26.67,33.65z M25.06,27c0.21-0.27,0.57-0.6,1.09-0.67c0.06-0.01,0.12-0.01,0.18-0.01   c1.01,0,1.96,1.06,2.14,2.42c0.11,0.84-0.08,1.66-0.53,2.23c-0.21,0.27-0.57,0.6-1.09,0.67c-1.07,0.14-2.13-0.97-2.32-2.41   C24.42,28.38,24.61,27.57,25.06,27z"/><path d="M36.68,33.61c0.17,0.02,0.33,0.04,0.5,0.04c1.98,0,3.78-1.73,4.13-4.08c0.21-1.37-0.11-2.73-0.85-3.74   c-0.6-0.81-1.45-1.34-2.39-1.48c-2.16-0.32-4.25,1.5-4.63,4.05c-0.21,1.37,0.11,2.73,0.85,3.74C34.9,32.95,35.75,33.48,36.68,33.61   z M35.42,28.7c0.2-1.35,1.16-2.38,2.16-2.38c0.07,0,0.14,0,0.21,0.01c0.52,0.08,0.87,0.42,1.07,0.69c0.43,0.59,0.61,1.4,0.48,2.25   c-0.22,1.44-1.29,2.52-2.36,2.37c-0.52-0.08-0.87-0.42-1.07-0.69C35.47,30.36,35.29,29.54,35.42,28.7z"/><path d="M44.73,38.99c0.36,0.13,0.74,0.2,1.13,0.2c0.53,0,1.07-0.13,1.59-0.37c1.14-0.55,2.06-1.63,2.52-2.98   c0.84-2.46-0.12-5.05-2.14-5.79c-0.86-0.31-1.83-0.25-2.72,0.17c-1.14,0.55-2.06,1.63-2.52,2.98   C41.75,35.66,42.71,38.26,44.73,38.99z M44.48,33.85c0.28-0.83,0.84-1.51,1.49-1.82c0.19-0.09,0.44-0.18,0.72-0.18   c0.14,0,0.3,0.02,0.45,0.08c0.99,0.36,1.41,1.85,0.93,3.26c-0.28,0.83-0.84,1.51-1.49,1.82c-0.28,0.14-0.72,0.26-1.17,0.1   C44.43,36.75,44,35.26,44.48,33.85z"/><path d="M20.08,47.24v0.14c0,3.68,3.19,6.46,7.41,6.46h8.62c4.23,0,7.31-2.72,7.31-6.46v-0.14c0-6.02-5.23-10.92-11.67-10.92   S20.08,41.22,20.08,47.24z M31.75,38.32c5.33,0,9.67,4,9.67,8.92v0.14c0,2.58-2.23,4.46-5.31,4.46h-8.62   c-3.13,0-5.41-1.88-5.41-4.46v-0.14C22.08,42.32,26.42,38.32,31.75,38.32z"/><path d="M21.74,33.21c-0.46-1.34-1.38-2.43-2.52-2.98c-0.89-0.43-1.85-0.49-2.72-0.17c-2.02,0.73-2.98,3.33-2.14,5.79   c0.46,1.34,1.38,2.43,2.52,2.98c0.52,0.25,1.06,0.37,1.59,0.37c0.39,0,0.77-0.07,1.13-0.2C21.62,38.26,22.58,35.66,21.74,33.21z    M18.92,37.11c-0.46,0.16-0.89,0.04-1.18-0.1c-0.65-0.31-1.21-0.99-1.49-1.82c-0.48-1.41-0.06-2.9,0.93-3.26   c0.46-0.17,0.89-0.04,1.18,0.1c0.65,0.31,1.21,0.99,1.49,1.82C20.33,35.26,19.9,36.75,18.92,37.11z"/></g></svg>