<svg xmlns="http://www.w3.org/2000/svg" data-name="Layer 1" viewBox="0 0 64 80" x="0px" y="0px"><path d="M22.26758,29.0791A3.31053,3.31053,0,0,0,19.5,29.71094a3.31232,3.31232,0,0,0-2.76758-.63184A2.82933,2.82933,0,0,0,14.5,31.94629c0,2.65918,3.11084,5.00293,4.44824,5.88769a.99988.99988,0,0,0,1.10352,0C21.38916,36.94922,24.5,34.60547,24.5,31.94629A2.82933,2.82933,0,0,0,22.26758,29.0791ZM19.5,35.78223c-1.56885-1.14746-3-2.67871-3-3.83594a.82989.82989,0,0,1,.67529-.916,1.22794,1.22794,0,0,1,.27686-.03125,1.2545,1.2545,0,0,1,1.146.69922,1.04059,1.04059,0,0,0,1.80372,0,1.27293,1.27293,0,0,1,1.42285-.668.82989.82989,0,0,1,.67529.916C22.5,33.10352,21.06885,34.63477,19.5,35.78223Z"/><path d="M60,5H57V2a.99974.99974,0,0,0-1-1H50a.99974.99974,0,0,0-1,1V5H10a1.00084,1.00084,0,0,0-.958.71289l-3,10A1.00041,1.00041,0,0,0,7,17h4V27.27289A18.99384,18.99384,0,1,0,34.71484,56H57a2.00229,2.00229,0,0,0,2-2V17h3a1,1,0,0,0,.98047-1.19629l-2-10A1.00026,1.00026,0,0,0,60,5ZM16.05859,45.99805c0,.249-.04589,1.13672-.09326,1.42675l-1.28955,2.5586a1.00113,1.00113,0,0,0,0,.90039l1.38281,2.74414v6.89215A17.03881,17.03881,0,0,1,5.29633,52.49377l2.91412-4.47131a.99679.99679,0,0,0,.16211-.5459v-4.793l.68359.45215a.99862.99862,0,0,0,.55176.166h5.21582a.99862.99862,0,0,0,.55176-.166l.6831-.45215Zm5.68653,14.91253V52.57617l1.41748-3.5166a.99426.99426,0,0,0,.07275-.374v-2.957a.99968.99968,0,0,0-.50683-.87012l-2.00245-1.13477.51123-3.1416,2.64942-.876H30.27l2.64795.876.51221,3.1416-2.002,1.13477a.99968.99968,0,0,0-.50683.87012v2.957a.99948.99948,0,0,0,.16064.54394l2.879,4.445A17.0029,17.0029,0,0,1,21.74512,60.91058ZM32.92139,48.38965V46.31152l2.10107-1.1914a1.00065,1.00065,0,0,0,.49365-1.03125l-.665-4.07227a1.74377,1.74377,0,0,0-1.15673-1.28418l-2.94922-.97558a.97887.97887,0,0,0-.314-.05079H23.72559a.97887.97887,0,0,0-.314.05079l-2.94629.97461a1.764,1.764,0,0,0-1.16894,1.335l-.65577,4.02246a1.00067,1.00067,0,0,0,.49366,1.03125l2.10107,1.1914v2.17969l-1.41748,3.5166a.99431.99431,0,0,0-.07275.374v8.60522q-.854-.01272-1.68653-.10651V53.39062a1.00147,1.00147,0,0,0-.10693-.45019l-1.26318-2.50684L17.794,48.23926a8.216,8.216,0,0,0,.26464-2.24121V40.82324a.99986.99986,0,0,0-1.55175-.834L14.523,41.30176H9.90869l-1.98437-1.3125a.99987.99987,0,0,0-1.55176.834v6.35645l-2.10724,3.233A16.99621,16.99621,0,1,1,37,44a16.877,16.877,0,0,1-1.8938,7.76288ZM18,25.10748V22h6v3.432a18.71009,18.71009,0,0,0-6-.32453ZM32,28V22h6v6ZM57,54H36.12512a18.87651,18.87651,0,0,0-3.32483-24H39a.99974.99974,0,0,0,1-1V21a.99974.99974,0,0,0-1-1H31a.99974.99974,0,0,0-1,1v6.87488a18.89374,18.89374,0,0,0-4-1.88861V21a.99974.99974,0,0,0-1-1H17a.99974.99974,0,0,0-1,1v4.432a18.81389,18.81389,0,0,0-3,.921V17H57ZM8.34424,15l2.3999-8H50a.99974.99974,0,0,0,1-1V3h4V6a.99974.99974,0,0,0,1,1h3.18018l1.60009,8Z"/><path d="M45,30h8a.99974.99974,0,0,0,1-1V21a.99974.99974,0,0,0-1-1H45a.99974.99974,0,0,0-1,1v8A.99974.99974,0,0,0,45,30Zm1-8h6v6H46Z"/><path d="M45,46h8a.99974.99974,0,0,0,1-1V37a.99974.99974,0,0,0-1-1H45a.99974.99974,0,0,0-1,1v8A.99974.99974,0,0,0,45,46Zm1-8h6v6H46Z"/><circle cx="10.5" cy="45.75073" r="0.75"/><circle cx="13.83301" cy="45.75073" r="0.75"/><circle cx="25" cy="43.50073" r="0.75"/><circle cx="29.5" cy="43.50073" r="0.75"/><path d="M27.416,45.5h-.5a.75.75,0,0,0,0,1.5h.5a.75.75,0,1,0,0-1.5Z"/></svg>