<svg xmlns="http://www.w3.org/2000/svg" xmlns:xlink="http://www.w3.org/1999/xlink" version="1.1" x="0px" y="0px" viewBox="0 0 66 82.5" style="enable-background:new 0 0 66 66;" xml:space="preserve"><path d="M52.52,46.11C52.52,46.11,52.52,46.11,52.52,46.11c-0.48-0.28-0.77-0.74-0.74-1.2c0.02-0.41-0.01-0.82-0.11-1.22  c-0.37-1.67-1.75-3.01-3.41-3.33c-1.32-0.26-2.66,0.08-3.68,0.92c-1.02,0.84-1.61,2.08-1.61,3.4c0,0.07,0,0.14,0,0.2  c0.02,0.5-0.26,0.96-0.74,1.24c-1.56,0.89-2.42,2.63-2.19,4.42c0.25,1.93,1.84,3.52,3.77,3.78c0.2,0.03,0.4,0.04,0.6,0.04  c0.82,0,1.6-0.22,2.3-0.65c0.39-0.24,0.92-0.24,1.31,0c0.87,0.54,1.88,0.75,2.9,0.62c1.93-0.26,3.52-1.84,3.77-3.78  C54.94,48.73,54.08,47,52.52,46.11z M53.22,50.33c-0.17,1.27-1.21,2.32-2.48,2.48c-0.68,0.09-1.34-0.05-1.92-0.4  c-0.88-0.54-2.01-0.54-2.89,0c-0.57,0.35-1.24,0.49-1.92,0.4c-1.27-0.17-2.32-1.21-2.48-2.48c-0.16-1.19,0.41-2.33,1.44-2.92  c0.97-0.55,1.55-1.55,1.5-2.61l0-0.13c0-0.87,0.39-1.69,1.06-2.25c0.53-0.44,1.17-0.66,1.84-0.66c0.2,0,0.4,0.02,0.6,0.06  c1.09,0.21,1.99,1.09,2.24,2.19c0.06,0.27,0.08,0.54,0.07,0.81c-0.06,1.04,0.52,2.03,1.5,2.59C52.81,48,53.37,49.14,53.22,50.33z"/><path d="M44.13,40.13c0.2,0.05,0.4,0.08,0.6,0.08c0.4,0,0.79-0.1,1.14-0.31c1.09-0.63,1.47-2.03,0.84-3.12  c-0.3-0.53-0.8-0.91-1.39-1.07c-0.59-0.16-1.21-0.08-1.73,0.23c-1.09,0.63-1.47,2.03-0.84,3.12C43.04,39.59,43.54,39.97,44.13,40.13  z M44.33,37.24c0.12-0.07,0.26-0.11,0.39-0.11c0.07,0,0.14,0.01,0.21,0.03c0.2,0.05,0.37,0.18,0.48,0.37c0,0,0,0,0,0  c0.1,0.18,0.13,0.39,0.08,0.6c-0.05,0.2-0.18,0.37-0.37,0.48c-0.18,0.1-0.39,0.13-0.6,0.08c-0.2-0.05-0.37-0.18-0.48-0.37  C43.82,37.94,43.95,37.45,44.33,37.24z"/><path d="M41.34,44.09c0.59-0.16,1.08-0.54,1.39-1.06c0.31-0.53,0.39-1.14,0.23-1.73s-0.54-1.08-1.07-1.39  c-0.53-0.31-1.15-0.39-1.73-0.23c-0.59,0.16-1.08,0.54-1.39,1.07c-0.63,1.09-0.25,2.49,0.84,3.12c0.35,0.2,0.74,0.31,1.14,0.31  C40.95,44.17,41.15,44.14,41.34,44.09z M40.36,42.56c-0.18-0.1-0.31-0.27-0.37-0.48c-0.05-0.2-0.03-0.41,0.08-0.6  c0.11-0.18,0.27-0.31,0.48-0.37c0.07-0.02,0.14-0.03,0.2-0.03c0.14,0,0.27,0.04,0.39,0.11c0.18,0.1,0.31,0.27,0.37,0.48  c0.05,0.2,0.03,0.41-0.08,0.6c-0.11,0.18-0.27,0.31-0.48,0.37C40.75,42.7,40.54,42.67,40.36,42.56z"/><path d="M54.58,39.68c-0.59-0.16-1.2-0.08-1.73,0.23c-1.09,0.63-1.47,2.03-0.84,3.12c0.3,0.53,0.8,0.91,1.39,1.06  c0.2,0.05,0.4,0.08,0.6,0.08c0.4,0,0.79-0.1,1.14-0.31c1.09-0.63,1.47-2.03,0.84-3.12C55.67,40.21,55.17,39.83,54.58,39.68z   M54.75,42.09c-0.05,0.2-0.18,0.37-0.37,0.48c-0.18,0.1-0.39,0.13-0.6,0.08c-0.2-0.05-0.37-0.18-0.48-0.37  c-0.22-0.38-0.09-0.86,0.29-1.07c0.12-0.07,0.25-0.11,0.39-0.11c0.07,0,0.14,0.01,0.2,0.03c0.2,0.05,0.37,0.18,0.48,0.37  c0,0,0,0,0,0C54.78,41.67,54.8,41.88,54.75,42.09z"/><path d="M48.88,39.9c0.35,0.2,0.74,0.31,1.14,0.31c0.2,0,0.4-0.03,0.6-0.08c0.59-0.16,1.08-0.54,1.39-1.06  c0.31-0.53,0.39-1.14,0.23-1.73s-0.54-1.08-1.07-1.39c-0.53-0.31-1.14-0.39-1.73-0.23c-0.59,0.16-1.08,0.54-1.39,1.07  C47.42,37.87,47.79,39.27,48.88,39.9z M49.34,37.52C49.34,37.52,49.34,37.52,49.34,37.52c0.11-0.18,0.27-0.31,0.48-0.37  c0.07-0.02,0.14-0.03,0.21-0.03c0.14,0,0.27,0.04,0.39,0.11c0.18,0.1,0.31,0.27,0.37,0.48c0.05,0.2,0.03,0.41-0.08,0.6  c-0.11,0.18-0.27,0.31-0.48,0.37c-0.2,0.05-0.41,0.03-0.6-0.08s-0.31-0.27-0.37-0.48C49.21,37.92,49.24,37.71,49.34,37.52z"/><path d="M8.91,23.53c0,0.54,0.44,0.97,0.97,0.97s0.97-0.44,0.97-0.97s-0.44-0.97-0.97-0.97S8.91,22.99,8.91,23.53z"/><path d="M24.16,13.36h4.6l-1.41,11.29c-0.15,1.18,0.22,2.36,1,3.25c0.78,0.89,1.91,1.4,3.1,1.4c1.18,0,2.31-0.51,3.1-1.4  c0.78-0.89,1.15-2.07,1-3.25l-1.41-11.29h4.6c1.67,0,3.02-1.35,3.02-3.02V2.49c0-0.41-0.34-0.75-0.75-0.75s-0.75,0.34-0.75,0.75  v5.81h-1.69V2.49c0-0.41-0.34-0.75-0.75-0.75s-0.75,0.34-0.75,0.75v5.81h-1.69V2.49c0-0.41-0.34-0.75-0.75-0.75  s-0.75,0.34-0.75,0.75v5.81H32.2V2.49c0-0.41-0.34-0.75-0.75-0.75S30.7,2.08,30.7,2.49v5.81h-1.69V2.49c0-0.41-0.34-0.75-0.75-0.75  s-0.75,0.34-0.75,0.75v5.81h-1.69V2.49c0-0.41-0.34-0.75-0.75-0.75s-0.75,0.34-0.75,0.75v5.81h-1.69V2.49  c0-0.41-0.34-0.75-0.75-0.75s-0.75,0.34-0.75,0.75v7.85C21.14,12.01,22.49,13.36,24.16,13.36z M34.06,24.84  c0.09,0.75-0.14,1.5-0.64,2.07c-1,1.13-2.95,1.13-3.95,0c-0.5-0.57-0.73-1.32-0.64-2.07l1.44-11.48h2.35L34.06,24.84z M40.26,10.34  c0,0.84-0.68,1.52-1.52,1.52H24.16c-0.84,0-1.52-0.68-1.52-1.52V9.81h17.62V10.34z"/><path d="M62.03,56.91h-2.55V36.31c0-3.35-2.49-6.12-5.72-6.58v-2.1c0-1.5-1.22-2.72-2.72-2.72H49.9V20h2.28  c0.13,0,0.23,0.1,0.23,0.23v2.04c0,0.41,0.34,0.75,0.75,0.75h3.56c0.41,0,0.75-0.34,0.75-0.75v-2.64c0-2.58-2.1-4.69-4.69-4.69h-9.6  c-0.41,0-0.75,0.34-0.75,0.75v3.56c0,0.41,0.34,0.75,0.75,0.75h1.66v4.91H43.7c-1.5,0-2.72,1.22-2.72,2.72v2.1  c-2.11,0.3-3.91,1.59-4.89,3.38c-14.72,0.18-16.43-7.01-16.5-7.33c-1.11-5.14-3.43-6.15-3.95-6.32c-4.36-1.92-8.4,1.44-9.42,2.38  l-4.22,0c-0.2,0-0.39,0.08-0.53,0.22s-0.22,0.33-0.22,0.53v1.12c0,3.46,2.79,6.28,6.24,6.32c6.29,1.35,7.49,7.88,7.53,8.07  c0.22,4.85,3.28,8.67,4.59,10.09c0.12,4.78-0.5,8.5-1.72,10.29c-0.95,0.37-4.33,1.91-4.04,5.09c0.04,0.39,0.36,0.68,0.75,0.68h3.76  c0.19,0,0.37-0.07,0.51-0.2c0.14-0.13,3.05-2.84,4.91-7.46c0.21,1.34,0.22,2.42,0.2,3.02c-2.23,0.73-2.45,3.7-2.46,3.84  c-0.01,0.21,0.06,0.41,0.2,0.56c0.14,0.15,0.34,0.24,0.55,0.24h4.46c0.29,0,0.56-0.17,0.68-0.44c1.46-3.16,1.72-12.19,1.77-14.86  c1.26-0.06,2.91-0.29,4.93-0.69c0.41-0.08,0.67-0.47,0.59-0.88c-0.08-0.41-0.46-0.67-0.88-0.59c-1.93,0.38-3.46,0.59-4.63,0.65  v-1.98c0-0.41-0.34-0.75-0.75-0.75s-0.75,0.34-0.75,0.75v2.75c0,0.11-0.08,10.72-1.46,14.53h-3.06c0.2-0.72,0.64-1.67,1.62-1.78  c0.34-0.04,0.62-0.31,0.66-0.66c0.03-0.28,0.77-7.02-4.17-12.57c-0.04-0.04-4.5-4.27-4.76-9.81c-0.01-0.08-1.42-7.87-8.78-9.4  c-0.05-0.01-0.1-0.02-0.15-0.02c-2.66,0-4.82-2.16-4.82-4.82v-0.37l3.77,0c0.2,0,0.4-0.08,0.54-0.23c0.04-0.04,4.03-4.05,8.01-2.26  c0.03,0.01,0.08,0.03,0.11,0.04c0.02,0,1.31,0.44,2.31,3.04c0.14,0.63,0.16,1.33,0.04,2.03c-0.17,0.99-0.59,1.9-1.16,2.5  c-0.29,0.31-0.88,0.8-1.57,0.69c-1.16-0.19-1.86-1.98-1.54-3.91c0.14-0.85,0.47-1.64,0.92-2.23c0.25-0.33,0.19-0.8-0.14-1.05  c-0.33-0.25-0.8-0.19-1.05,0.14c-0.61,0.79-1.03,1.8-1.21,2.9c-0.47,2.82,0.74,5.29,2.77,5.63c0.15,0.03,0.31,0.04,0.46,0.04  c0.87,0,1.72-0.41,2.45-1.18c0.51-0.54,0.9-1.23,1.18-1.99c1.23,2.43,5.13,7.1,16.84,7.11c-0.14,0.54-0.23,1.11-0.23,1.69v23.26  c0,2.58,2.1,4.69,4.69,4.69h11.61c0.41,0,0.75-0.34,0.75-0.75s-0.34-0.75-0.75-0.75h-2.44c-0.67,0-1.22-0.55-1.22-1.22v-1.91  c0-0.67,0.55-1.22,1.22-1.22h12.91c0.67,0,1.22,0.55,1.22,1.22v1.91c0,0.67-0.55,1.22-1.22,1.22h-8.04c-0.41,0-0.75,0.34-0.75,0.75  s0.34,0.75,0.75,0.75h8.04c1.5,0,2.72-1.22,2.72-2.72v-1.91C64.75,58.13,63.53,56.91,62.03,56.91z M18.05,62.76h-2.68  c0.39-1.97,3.19-2.92,3.22-2.93c0.14-0.05,0.27-0.14,0.36-0.26c1.69-2.23,2.12-6.4,2.16-9.59c0.93,1.3,1.57,2.65,1.99,3.93  C21.77,58.74,18.85,61.95,18.05,62.76z M43.93,16.45h8.85c1.76,0,3.19,1.43,3.19,3.19v1.89h-2.06v-1.29c0-0.96-0.78-1.73-1.73-1.73  h-8.25V16.45z M46.34,20h2.06v4.91h-2.06V20z M42.48,27.63c0-0.67,0.55-1.22,1.22-1.22h1.9h3.56h1.89c0.67,0,1.22,0.55,1.22,1.22  v2.03h-9.78V27.63z M46.4,59.63v1.91c0,0.44,0.11,0.85,0.3,1.22h-6.75c-1.76,0-3.19-1.43-3.19-3.19V36.31  c0-2.84,2.31-5.15,5.16-5.15h10.91c2.84,0,5.16,2.31,5.16,5.15v20.61h-8.86C47.62,56.91,46.4,58.13,46.4,59.63z"/></svg>