<svg xmlns="http://www.w3.org/2000/svg" viewBox="0 0 100 125" x="0px" y="0px"><path d="M66.91,43.3c-2.72-.29-3.68,.95-4.01,1.7-.72,1.66,.27,3.99,2.51,5.94,1.61,1.4,3.29,3.57,2.1,5.94-.93,1.87-2.63,2.3-4,2.31-.55-2.57-1.81-5.03-3.75-8.23-2.85-4.7-4.04-8.41-3.53-11.04,.1-.52,.54-1.73,1.05-3.13,1.53-4.22,4.01-11.02,3.44-15.81,1.13-1.13,1.71-3.5,1.68-5.21-.06-3.15-1.83-5.2-4.73-5.56-2.42-1.19-5.53-1.76-7.41-1.3-.82,.2-1.54,.4-2.17,.56-.86,.23-1.85,.48-2.08,.48-.44-.06-3.17-.68-4.79-1.05-.33-.08-.69-.01-.97,.18-.29,.19-.48,.49-.54,.83-.14,.81-.59,3.55-.45,4.61,.1,.75,.65,1.93,3.99,5.43,.39,.41,.72,.71,.99,.96q.62,.57,.62,.89c-.01,.73-1.07,3.91-2.23,5.85-.48,.49-.92,1.02-1.31,1.54-.77,.69-1.46,2-2.06,3.5-.03,.07-.07,.14-.1,.2-1.65-.59-4.14-1.56-5.19-2.24-2.37-1.52-5.93-.23-8.48,3.06-1.75,2.26-1.21,5.36,.02,7.29,.87,1.35,2.04,2.02,3.14,1.76,1.42-.33,1.86-1.79,2.21-2.96,.43-1.44,.62-1.66,.89-1.62,.63,.08,2.36,1.1,3.88,2,.46,.27,.93,.55,1.41,.82-.48,4.65,.97,9.36,2.34,12.56,2.04,4.79,2.82,5.32,7.13,8.27l.44,.3c-.36,2.4-1.1,9.06,1.05,12.56,1.36,2.2,2.88,3.92,4,5.16,.48,.54,1.08,1.21,1.25,1.5-.08,.96-1.48,3.62-2.25,3.67-1,.07-1.84,.53-2.44,1.35-.87,1.19-.98,2.83-.71,3.92,.14,.56,.64,.95,1.21,.95h6.81c.41,0,.8-.2,1.03-.54,.7-1.02,4.21-6.2,4.62-8.43,.24-1.3-.47-2.53-1.15-3.73-.93-1.63-1.31-2.47-.75-3.15,1.62-1.99,2.45-3.22,3.19-6.15,7.03-.59,11.63-6.12,12.62-11.71,.59-3.34-.48-7.34-2.81-10.43-1.67-2.22-3.76-3.61-5.72-3.81Zm-16.65,45.45c.05-.33,.16-.66,.33-.9,.16-.21,.33-.31,.58-.33,.98-.06,1.9-.66,2.74-1.76,1.04-1.36,2.04-3.71,1.81-4.9-.15-.75-.79-1.47-1.85-2.66-1.05-1.18-2.49-2.8-3.74-4.81-1.71-2.76-1-9.32-.59-11.61,.09-.48-.12-.97-.52-1.25l-1.1-.75c-4.15-2.83-4.49-3.06-6.24-7.18-1.14-2.68-2.37-6.49-2.24-10.28,1.75,.88,3.45,1.53,4.92,1.53,.8,0,1.53-.19,2.15-.63,3.41-2.42,4.01-9.39,4.07-10.18,.05-.69-.47-1.29-1.16-1.34-.68-.05-1.29,.47-1.34,1.16-.12,1.69-.94,6.85-3.02,8.32-1.3,.92-5.76-1.72-8.16-3.13-2.29-1.35-3.75-2.19-4.84-2.32-2.49-.31-3.2,2.09-3.59,3.38-.1,.33-.25,.84-.39,1.13-.27-.23-.71-.81-.99-1.72-.18-.6-.51-2.11,.38-3.25,1.85-2.39,4.11-3.16,5.15-2.49,1.87,1.21,6.65,2.83,6.85,2.89,.65,.22,1.35-.12,1.58-.77,.01-.04,1.39-3.86,4.01-6.09,.34-.29,.46-.72,.4-1.14,1.13-2.3,1.9-4.95,1.9-5.85,0-1.42-.69-2.05-1.42-2.73-.24-.22-.54-.49-.88-.85-2.94-3.08-3.29-3.94-3.32-4.03-.04-.33,.07-1.41,.23-2.54,1.34,.31,3.21,.72,3.69,.79,.7,.1,1.6-.14,3.09-.55,.61-.17,1.32-.36,2.11-.55,1.08-.26,2.96,.03,4.62,.64-1.72,2.73-4.37,7.06-4.62,8.17-.12,.51,.02,1.03,.37,1.41,.44,.47,1.1,.7,2.38,.7,1.06,0,2.55-.16,4.68-.46,.28,4.14-1.95,10.29-3.36,14.14-.59,1.62-1.02,2.79-1.15,3.51-.64,3.3,.62,7.49,3.85,12.81,3.34,5.51,4.3,8.2,3.4,13.3-.9,5.1-1.47,5.98-3.33,8.26-1.7,2.09-.42,4.33,.51,5.97,.4,.69,.94,1.64,.86,2.04-.22,1.22-2.34,4.68-3.85,6.92h-4.96Z"/></svg>