<svg xmlns="http://www.w3.org/2000/svg" viewBox="0 0 100 125" x="0px" y="0px"><path d="M94.07,23.15c0-.19,0-.43,0-.7,.06-2.55,.2-9.14-7.69-12.26,.25-1.64,.62-4,.82-4.82,.12-.49,0-1-.34-1.37-.34-.37-.83-.55-1.33-.48-.65,.1-15.88,2.49-19.75,13-1.13,3.06-1.72,6.43-2.29,9.69-.2,1.16-.41,2.31-.63,3.44-1.81-14.71-14.37-26.14-29.56-26.14C16.87,3.5,3.5,16.87,3.5,33.29c0,12.08,7.23,22.49,17.58,27.16-.08,.1-.17,.21-.25,.31-1.91,2.33-6.38,10.13-4.14,18.21,2.91,10.48,11.94,17.53,22.47,17.53h1.39s0,0,0,0c0,0,0,0,0,0h3.94s0,0,0,0c0,0,0,0,0,0h19.11c.46,0,.9-.22,1.19-.58,.28-.37,.38-.85,.26-1.3-.04-.16-.84-3.12-3.37-4.9,1.08-.8,2.47-1.86,3.95-3.04l-.05,.72c0,.15,0,.29,.04,.44l1.72,7.5c.16,.68,.76,1.16,1.46,1.16h8.61c.41,0,.81-.17,1.09-.47,.28-.3,.43-.71,.4-1.12-.18-2.79-.96-3.78-2.25-4.53-.39-.23-.59-.34-.73-1.61-.19-1.66,.66-7.83,1.79-14.8,3.27-4.21,7.23-9.38,8.41-13.8,2.2-8.24-.46-15.92-2.23-21-.58-1.66-1.17-3.38-1.14-4.01,.05-.83,.1-1.26,.15-1.48,.28-.03,.76-.03,1.2-.02h.42c.94,0,1.83,.06,2.68,.12,1.65,.11,3.08,.21,4.27-.2,1.58-.55,5.22-4.54,4.99-6.19-.09-.6-.45-1.04-.95-1.65-.57-.69-1.43-1.72-1.46-2.59Zm-6.64,7.63c-.86-.06-1.84-.12-2.88-.12h-.41c-3.14-.02-4.15,.58-4.36,4.34-.07,1.22,.51,2.87,1.3,5.16,1.65,4.73,4.13,11.89,2.17,19.24-.66,2.46-2.43,5.34-4.43,8.15,.57-3.25,1.14-6.44,1.66-9.2,.15-.81-.38-1.6-1.2-1.75-.81-.15-1.6,.38-1.75,1.2-.52,2.75-5.05,27.01-4.57,31.32,.29,2.55,1.24,3.31,2.19,3.86,.2,.12,.37,.22,.51,.54h-5.66l-1.41-6.12,1.09-16.22c.06-.83-.57-1.54-1.4-1.6-.83-.06-1.54,.57-1.6,1.4l-.78,11.63c-2.65,2.2-5.51,4.37-7.34,5.7,.09-.79,.41-2.1,.66-3.12,1.06-4.29,2.5-10.16-.88-14.1-2.52-2.94-7.1-4.07-14-3.45-.83,.07-1.43,.8-1.36,1.63,.07,.83,.82,1.43,1.63,1.36,5.78-.51,9.64,.3,11.45,2.42,2.38,2.77,1.15,7.78,.25,11.43-.7,2.86-1.17,4.75-.25,6.02,.39,.55,1,.88,1.71,.93,.22,.02,.43,.05,.63,.09,1.33,.29,2.23,1.16,2.82,2.01h-16.55c-1.98-.48-3.32-1.38-3.98-2.7-1.38-2.74,.29-6.56,.3-6.6,.34-.75,0-1.64-.75-1.98-.75-.34-1.64,0-1.98,.75-.09,.21-2.26,5.13-.26,9.16,.25,.49,.55,.95,.89,1.36-9.06-.11-16.81-6.23-19.33-15.32-1.9-6.85,1.93-13.51,3.56-15.5,.27-.33,.56-.69,.87-1.07,.79,.26,1.59,.49,2.41,.68-1.81,2.71-3.18,5.14-3.69,7.28-2.47,10.45,8.88,16.76,9.37,17.02,.48,.26,1.07,.24,1.53-.06s.72-.82,.68-1.37l-.86-12.2c-.24-3.41,.65-6.79,2.31-9.98,12.93-1.06,23.54-10.42,26.5-22.72,2.48-3.89,3.35-8.76,4.19-13.54,.55-3.13,1.12-6.37,2.15-9.17,2.48-6.74,11.2-9.62,15.26-10.62-.3,1.82-.6,3.92-.62,4.05-.1,.73,.33,1.42,1.03,1.64,6.98,2.22,6.87,7.13,6.81,9.76,0,.35-.01,.65,0,.89,.07,1.88,1.37,3.45,2.15,4.38,.03,.03,.05,.06,.08,.09-.63,.98-2.15,2.75-2.78,2.99-.61,.21-1.81,.13-3.08,.04Zm-27.34,2.51c0,14.77-12.02,26.79-26.79,26.79S6.5,48.07,6.5,33.29,18.52,6.5,33.29,6.5s26.79,12.02,26.79,26.79Zm-29.63,39.87l.64,9.11c-2.77-2.21-6.76-6.47-5.45-12.02,.46-1.96,2.04-4.54,4-7.39,.89,.11,1.79,.18,2.7,.21-1.42,3.22-2.15,6.63-1.9,10.1Z"/><path d="M26.25,18.36v7.9h-7.9c-.83,0-1.5,.67-1.5,1.5v11.08c0,.83,.67,1.5,1.5,1.5h7.9v7.9c0,.83,.67,1.5,1.5,1.5h11.07c.83,0,1.5-.67,1.5-1.5v-7.9h7.91c.83,0,1.5-.67,1.5-1.5v-11.08c0-.83-.67-1.5-1.5-1.5h-7.91v-7.9c0-.83-.67-1.5-1.5-1.5h-11.07c-.83,0-1.5,.67-1.5,1.5Z"/></svg>