<svg xmlns="http://www.w3.org/2000/svg" data-name="Layer 1" viewBox="0 0 110 137.5" x="0px" y="0px"><path d="M88.152,101.449a3.466,3.466,0,0,1-3.465-3.462V89.433a1,1,0,0,1,1-1h4.927a1,1,0,0,1,1,1v8.554A3.465,3.465,0,0,1,88.152,101.449ZM86.687,90.433v7.554a1.464,1.464,0,0,0,2.927,0V90.433Z"/><path d="M72.478,101.45a3.475,3.475,0,0,1-2.952-1.641L64.8,92.175a1,1,0,0,1,0-1.054l1.376-2.216a1,1,0,0,1,.849-.472h3.049a1,1,0,0,1,.851.473l4.494,7.258a3.461,3.461,0,0,1-1.035,4.707,1.061,1.061,0,0,1-.088.061A3.451,3.451,0,0,1,72.478,101.45Zm1.29-1.369h0Zm-6.945-8.432,4.405,7.108a1.445,1.445,0,0,0,.908.653,1.465,1.465,0,0,0,1.047-.145c.019-.014.039-.027.059-.039a1.459,1.459,0,0,0,.473-2.009l-4.2-6.784H67.578Z"/><path d="M58.816,101.45A3.465,3.465,0,0,1,57,100.933l-.062-.043a3.456,3.456,0,0,1-1.058-4.729l4.343-7.013V78.624l-4.262-3.575a3.329,3.329,0,1,1,4.33-5.056l3.87,3.384H79.4l8.2-14.832a3.141,3.141,0,0,1,5.891,1.521v4.179L97.532,68.7l5,2.585a2.733,2.733,0,0,1,1.256,3.465v0a6.229,6.229,0,0,1-7.416,3.568l-2.284-.64-2.473,4.046v7.709a1,1,0,0,1-1,1H67.578L61.766,99.81a3.472,3.472,0,0,1-2.95,1.64Zm-.725-2.2a1.462,1.462,0,0,0,1.973-.5l6.109-9.853a1,1,0,0,1,.849-.472H89.614V81.442a1,1,0,0,1,.147-.521l3.013-4.932a1,1,0,0,1,1.123-.441l3.014.845a4.232,4.232,0,0,0,5.034-2.423.722.722,0,0,0-.332-.912l-5.159-2.667a.99.99,0,0,1-.281-.217L91.753,65.3a1,1,0,0,1-.26-.672V60.066a1.141,1.141,0,0,0-2.141-.552L80.867,74.86a1,1,0,0,1-.875.517H63.785a1,1,0,0,1-.658-.247L58.975,71.5a1.329,1.329,0,1,0-1.729,2.018l4.619,3.874a1,1,0,0,1,.358.766V89.433a1,1,0,0,1-.15.526l-4.494,7.258a1.458,1.458,0,0,0,.469,2.01Zm44.775-24.9h0Z"/><path d="M90.613,82.44a.984.984,0,0,1-.552-.167L79.438,75.21a1,1,0,0,1,1.108-1.666l10.622,7.063a1,1,0,0,1-.555,1.833Z"/><path d="M81.228,73.143a.994.994,0,0,1-.679-.266L52.892,47.3a3.491,3.491,0,0,0-2.987-.92c-.564.109-2.28.441-1.668,4.225a1,1,0,1,1-1.974.32c-.8-4.958,1.7-6.206,3.261-6.508a5.487,5.487,0,0,1,4.725,1.414L81.906,71.408a1,1,0,0,1-.678,1.735Z"/><path d="M12.759,62.333a1,1,0,0,1-.987-.841,13.239,13.239,0,0,1-.107-3.462,1.008,1.008,0,0,1,1.03-.9,1,1,0,0,1,.963.968l.1,3.2a1,1,0,0,1-.9,1.026C12.823,62.331,12.791,62.333,12.759,62.333Z"/><path d="M32.43,42.188a1,1,0,0,1-.785-.378L27.96,37.159a1,1,0,0,1,1.568-1.242l3.685,4.65a1,1,0,0,1-.783,1.621Z"/><path d="M32.546,25.4c-.278,0-.559-.014-.84-.042A8.423,8.423,0,1,1,40.9,17.787h0A8.425,8.425,0,0,1,32.546,25.4Zm-.032-14.85a6.438,6.438,0,0,0-6.391,5.8A6.424,6.424,0,1,0,38.91,17.591h0a6.424,6.424,0,0,0-5.764-7.008C32.935,10.562,32.723,10.551,32.514,10.551Z"/><path d="M11.245,101.446a4.812,4.812,0,0,1-.62-.039A5.281,5.281,0,0,1,6.8,98.97a5.224,5.224,0,0,1-.518-4.456l5.993-17.768-.51-15.357a1,1,0,0,1,1.983-.212,10.656,10.656,0,0,0,4.1,6.664L24.3,72.718c.025.018.06.049.084.07a1,1,0,0,1,.267,1.068L16.286,97.7A5.419,5.419,0,0,1,11.245,101.446Zm2.693-34.769.337,10.183a.96.96,0,0,1-.051.353L8.173,95.154a3.25,3.25,0,0,0,2.707,4.269A3.352,3.352,0,0,0,14.4,97.051l8.127-23.174L16.64,69.441A12.576,12.576,0,0,1,13.938,66.677Z"/><path d="M34.807,101.447a5.257,5.257,0,0,1-5.267-5.253V79.187l-6.432-4.861c-.025-.019-.061-.05-.085-.071l-6.384-4.809a12.7,12.7,0,0,1-4.866-7.912,1.179,1.179,0,0,1-.015-.179l-.1-3.192a.845.845,0,0,1,.012-.188l.219-1.383c0-.029.009-.056.013-.081s.005-.029.008-.043c.05-.23.114-.451.177-.665l.025-.088a.9.9,0,0,1,.027-.111l7.186-23.529a8.086,8.086,0,0,1,10.091-5.4,8.319,8.319,0,0,1,1.492.62,12.267,12.267,0,0,1,3.059,2.881L42.2,40.445l7.778,5.932a4.808,4.808,0,0,1-5.828,7.649L37.6,49.045a.957.957,0,0,1-.168-.162l-4.589-5.608c-3.375,11.193-4.517,14.892-4.915,16.14L38.986,74.1A5.148,5.148,0,0,1,40.04,77.26V96.01a5.385,5.385,0,0,1-4.173,5.333A5.535,5.535,0,0,1,34.807,101.447ZM13.756,61.253a10.7,10.7,0,0,0,4.083,6.593L24.3,72.72c.025.019.06.05.084.071l6.756,5.1a1,1,0,0,1,.4.8V96.194a3.263,3.263,0,0,0,3.931,3.188A3.378,3.378,0,0,0,38.04,96.01V77.26a3.178,3.178,0,0,0-.646-1.949L26.021,60.206a1,1,0,0,1-.125-.985c.227-.638,3-9.78,5.576-18.321a1,1,0,0,1,1.73-.345l5.7,6.969,6.452,4.911h0a2.808,2.808,0,0,0,4.508-2.153,2.816,2.816,0,0,0-1.1-2.315l-7.875-6.006a1.031,1.031,0,0,1-.174-.169l-8.339-10.4a1.138,1.138,0,0,1-.07-.1,12.644,12.644,0,0,0-2.221-2.173,6.982,6.982,0,0,0-1.241-.525,6.087,6.087,0,0,0-7.607,4.063L14.073,56.107c-.006.031-.012.06-.02.087l-.05.171c-.048.165-.1.336-.138.514l0,.008,0,.017-.2,1.289Z"/></svg>